Patient4_TMGait_0pt7_01_left_48_EMG.mot
version=1
nRows=23
nColumns=33
inDegrees=no
endheader
time	1LAddLong	2LGlutMax	3LGlutMed	4LIliopsoas	5LSemiMemb	6LBicFemLong	7LRecFem	8LVastMed	9LVastLat	10LGasMed	11LTibAnt	12lTibPost	13LPeroneusLong	14LSol	15LExtDigLong	16LFlexDigLong	17RAddLong	18RGlutMax	19RGlutMed	20RIliopsoas	21RSemiMemb	22RBicFemLong	23RRecFem	24RVastMed	25RVastLat	26RGasMed	27RTibAnt	28RTibPost	29RPeroneusLong	30RSol	31RExtDigLong	32RFlexDigLong
56.575	0.014954	-0.079803	-0.070038	-0.013733	-0.008087	-0.075684	-0.34683	0.003662	-0.057373	0.3566	0.005951	0.046844	0.043945	0.23697	0.01297	-0.096588	0.11414	-0.4422	0.078125	-0.061493	0.47958	-0.68512	-0.02121	-0.18921	-0.51605	-0.00412	0.053101	-0.000153	-0.46585	-0.035248	-0.001068	-0.016174
56.576	0.02533	-0.076752	-0.087738	0.007935	-0.027161	-0.059509	-0.37262	-0.001373	-0.042114	0.58746	-0.002289	0.000305	0.066833	0.22247	0.013275	0.45944	0.12466	-0.50308	0.020752	-0.11276	0.61798	-0.89996	0.00824	-0.19043	-0.63522	-0.00061	-0.014038	0.008392	-0.28336	-0.11856	-0.003052	-0.009155
56.577	0.022583	-0.032959	-0.067139	0.00885	-0.015564	-0.057831	-0.36224	-0.007629	-0.010223	0.42465	0.008087	0.042267	0.11459	0.14404	-0.03006	-0.096893	0.093231	-0.47989	-0.010529	-0.050507	0.43671	-0.95245	0.043335	-0.037994	-0.48035	0.010529	-0.14496	-0.00473	0.27908	-0.12054	0.001068	-0.00885
56.578	0.029449	-0.025482	-0.02655	0.006104	0.003662	0.089722	-0.36575	-0.00824	-0.012512	0.0914	-0.006866	-0.14236	0.12192	0.13596	-0.026093	0.087738	0.061188	-0.51697	0.025177	0.040283	0.010071	-0.78461	-0.14114	0.057526	-0.21225	0.020142	-0.076141	-0.006561	0.22583	-0.11673	-0.002899	-0.004578
56.579	0.020599	-0.02655	-0.009766	0.002747	0.026703	0.081787	-0.34256	-0.009766	-0.036926	-0.27786	-0.007782	-0.088348	0.018311	-0.54352	-0.010529	0.61493	-0.000458	-0.57754	-0.054932	0.096741	0.18265	-0.46097	-0.26642	0.10437	-0.18066	0.009918	0.014038	-0.008392	1.1481	-0.068665	0.003204	-0.008545
56.58	0.020752	-0.020447	-0.009003	-0.005493	0.022278	0.017853	-0.32837	0.000305	-0.037842	-0.3981	0.009918	0.12772	0.009613	-0.37781	0.003052	0.21393	-0.082092	-0.56458	-0.14099	0.046387	0.57297	-0.45059	-0.31723	0.17609	-0.14465	-0.000305	0.052032	-0.006409	1.2428	-0.031891	0	-0.009155
56.581	0.018921	-0.009003	0.007782	-0.007782	-0.005798	0.02594	-0.32303	0.001984	-0.039215	-0.46845	0.002594	0.005341	0.037994	-0.53421	-0.004578	0.050964	-0.045319	-0.51224	-0.12909	0.004425	0.72952	-0.61264	-0.40253	0.31265	-0.13779	0	0.062103	-0.009613	0.55893	-0.02182	-0.004272	-0.01297
56.582	0.018921	-0.052643	0.042725	-0.02655	-0.018616	0.036316	-0.32059	0.002441	-0.047302	-0.2507	-0.005188	0.11185	0.10361	-0.59723	-0.019379	0.061493	0.029144	-0.569	-0.10056	-0.28534	0.63934	-0.70511	-0.41321	0.2536	-0.048065	0.01297	0.024719	-0.007477	0.010223	-0.030975	-0.001678	-0.005188
56.583	0.011597	-0.065613	0.037079	-0.007172	-0.007477	0.035858	-0.31723	0.006104	-0.041351	0.34943	-0.002594	0.056305	0.15808	-0.06958	-0.002136	-1.3263	0.0914	-0.51224	-0.10941	-0.36713	0.43396	-0.65506	-0.28244	0.20462	0.042572	0.012512	-0.11017	-0.007324	0.75455	-0.11475	-0.016022	-0.004425
56.584	0.006714	-0.061188	0.051117	0.005188	0.025024	-0.003204	-0.33707	-0.001068	-0.037689	0.52719	0.00061	-0.086212	0.14572	0.07431	-0.002441	0.10407	0.13016	-0.47669	-0.15839	-0.26672	0.2356	-0.54245	-0.27161	0.1152	-0.051575	0.02243	-0.1535	-0.007782	0.087891	-0.1741	-0.012665	-0.009308
56.585	0.011292	-0.069122	0.06897	0.017395	0.017853	-0.00412	-0.31494	0.00061	-0.020599	0.11383	0.002747	-0.033722	0.11551	0.13962	0.022888	0.46265	0.099487	-0.49972	-0.18784	-0.021362	-0.071259	-0.37659	-0.3154	-0.13596	-0.23529	0.007019	-0.036011	-0.008545	-1.3188	-0.089111	-0.00351	-0.016479
56.586	0.012512	-0.092163	0.071106	0.022888	0.010223	-0.014648	-0.31876	0.000153	-0.02655	-0.01297	0.00824	0.007935	0.084991	0.092163	0.009918	0.22659	0.070496	-0.44006	-0.16708	0.34714	-0.10208	-0.2298	-0.26245	-0.19821	-0.37369	0.01236	0.007019	-0.010834	-1.2123	-0.017242	-0.008545	-0.010376
56.587	0.007172	-0.06012	0.07431	0.00061	-0.032196	0.12726	-0.31662	-0.00061	-0.028381	0.14572	0.014191	-0.25406	0.029449	0.09552	-0.006866	0.033569	-0.044556	-0.31845	-0.16296	0.51437	0.40527	0.022278	-0.32684	-0.25681	-0.26352	0.014648	-0.030212	-0.00885	-0.8815	0.065002	-0.00061	-0.015564
56.588	0.007782	-0.085754	0.076599	0.003052	-0.10086	0.16159	-0.31128	-0.00061	-0.014191	0.22934	0.023346	0.63995	0.063477	0.31403	0.039215	-0.085602	-0.080719	-0.29175	-0.16693	0.3952	0.20859	0.15579	-0.37766	-0.33829	-0.11704	-0.002441	-0.033875	-0.010071	-0.5864	0.048523	-0.002136	-0.013733
56.589	0.016632	-0.038452	0.084686	0.006409	-0.10498	0.066376	-0.30701	-0.006104	-0.006866	-0.22553	0.031281	0.69427	0.053101	0.085449	0.059509	0.010223	-0.081024	-0.34332	-0.066833	0.1564	0.34958	0.16922	-0.37918	-0.24323	-0.065918	0.009918	-0.007019	-0.007172	0.09964	-0.020599	0.000153	-0.005798
56.59	0.014801	-0.063324	0.088959	-0.002136	-0.067291	-0.06546	-0.30731	-0.009308	-0.002136	-0.50659	0.010071	-0.65689	-0.06897	0.15228	0.14175	-0.22842	-0.042877	-0.4187	0.028076	-0.033875	0.55527	0.37018	-0.43716	-0.056	-0.073395	0.010681	-0.04303	-0.010834	0.59891	-0.016022	-0.003967	-0.011597
56.591	0.029755	0.002289	0.059052	-0.002594	0.04837	-0.17166	-0.28595	-0.012054	0.011597	0.011292	0.016632	-0.5397	-0.33569	0.86151	0.14069	-0.41946	-0.032196	-0.48263	0.034943	-0.16693	0.45624	0.36285	-0.49759	0.19608	0.059814	0.009308	-0.050049	-0.007782	0.68329	-0.01709	0.004883	-0.00824
56.592	0.036926	-0.054932	0.059967	-0.003357	0.10803	-0.21469	-0.23315	-0.000153	-0.010681	0.47226	0.008392	0.1503	-0.31586	1.8773	-0.00351	0.12131	-0.040436	-0.36423	-0.085907	-0.18234	0.25803	0.26642	-0.44952	0.36468	0.10605	0.013428	-0.065002	-0.006256	0.37643	-0.053253	-0.000458	-0.003052
56.593	0.022888	-0.078125	0.060577	0.003357	0.09079	-0.10269	-0.19486	-0.00351	-0.015411	1.1374	0.009918	0.56274	-0.19486	2.1806	-0.10284	-0.24551	0.025177	-0.31525	-0.054779	-0.042267	0.14084	0.16083	-0.40314	0.22385	0.1329	0.009155	-0.016174	-0.00412	0.1532	-0.031433	-0.003357	-0.006561
56.594	0.018463	-0.069885	0.036774	-0.017853	-0.013123	0.07843	-0.17944	0.004425	-0.010834	1.3606	-0.001373	-0.11398	0.10315	1.1328	-0.1181	-0.57083	0.089874	-0.16937	-0.10544	0.096741	0.056458	0.007019	-0.28442	-0.056	0.057068	0.007477	0.058746	-0.004272	-0.032654	-0.019531	-0.000916	-0.004272
56.595	0.017395	-0.057068	0.054932	-0.010681	-0.087585	0.14832	-0.18616	0.014191	-0.011749	0.9227	-0.019226	-0.036774	0.27374	-0.68085	-0.15808	0.71091	0.10941	-0.012817	-0.27176	0.10193	0.05127	-0.15106	-0.027771	-0.27359	-0.037842	0.005341	0.1033	-0.008698	-0.26352	0.008698	0.002441	-0.002899
56.596	0.019989	0.00824	0.065002	0.010376	-0.074615	0.11337	-0.18387	-0.007019	0.00824	0.099792	-0.012665	-0.18753	0.38483	-1.0791	-0.10605	0.81848	0.11139	0.078888	-0.17258	0.054474	0.1326	-0.24979	0.1004	-0.38589	-0.068665	0.003052	0.17731	-0.007324	-0.168	-0.025024	-0.002136	-0.005798
56.597	0.028381	-0.01297	0.098724	0.000458	0.047455	0.07431	-0.19012	-0.010834	0.032196	-0.28137	-0.010071	-0.1619	0.39658	-1.3145	-0.13641	-0.36957	0.015106	0.14618	-0.34409	-0.017853	0.052338	-0.26077	0.03891	-0.4863	0.32288	0.00824	0.14771	-0.004883	-0.19669	-0.019226	0.001068	0.006409
